<?xml version="1.0" standalone="no"?>
<!DOCTYPE svg PUBLIC "-//W3C//DTD SVG 20010904//EN"
 "http://www.w3.org/TR/2001/REC-SVG-20010904/DTD/svg10.dtd">
<svg version="1.0" xmlns="http://www.w3.org/2000/svg"
 width="745.000000pt" height="785.000000pt" viewBox="0 0 745.000000 785.000000"
 preserveAspectRatio="xMidYMid meet">

<g transform="translate(0.000000,785.000000) scale(0.100000,-0.100000)"
fill="#000000" stroke="none">
<path d="M5735 6749 c-16 -5 -88 -22 -160 -38 -71 -17 -292 -69 -490 -116
-198 -47 -504 -120 -680 -162 -176 -42 -419 -99 -540 -128 l-220 -51 1 -184
c1 -125 5 -185 13 -188 6 -2 152 42 323 98 711 231 1121 365 1261 411 139 46
187 57 187 43 0 -3 -23 -132 -50 -287 -28 -155 -67 -372 -86 -482 -59 -340
-95 -539 -100 -555 -5 -16 -34 -48 -222 -245 -62 -65 -109 -122 -105 -125 5
-4 60 -13 123 -19 63 -7 119 -16 124 -21 11 -11 -135 -853 -154 -890 -5 -9
-66 -58 -137 -110 -131 -97 -448 -331 -698 -517 -315 -233 -439 -324 -452
-332 -11 -5 -13 -42 -11 -169 l3 -162 380 301 c209 165 490 387 625 494 135
107 306 242 380 300 74 59 136 108 137 109 2 2 428 2123 513 2556 52 264 88
435 96 463 6 19 -12 21 -61 6z"/>
<path d="M4740 5770 c-63 -21 -277 -91 -475 -155 -198 -65 -366 -122 -372
-127 -10 -8 -13 -69 -13 -244 l0 -234 -115 -123 -115 -122 0 -682 c0 -441 4
-684 10 -688 12 -7 14 -5 365 255 138 102 314 233 392 290 106 78 145 113 152
135 19 60 45 235 35 245 -5 5 -94 18 -199 30 -104 11 -244 27 -310 35 -66 8
-125 15 -132 15 -7 0 -13 5 -13 11 0 9 181 204 484 519 161 168 340 360 348
373 6 11 82 414 90 476 2 13 -1 25 -7 27 -5 1 -62 -15 -125 -36z"/>
<path d="M1863 1318 c-29 -14 -43 -56 -36 -107 8 -57 31 -71 115 -71 l68 0 0
-30 0 -30 -91 0 -90 0 3 -27 3 -28 110 -3 c102 -3 111 -1 128 19 11 14 17 38
17 69 0 72 -19 89 -104 92 -51 2 -72 7 -79 20 -20 32 8 48 84 48 l69 0 0 30 0
30 -87 -1 c-49 0 -98 -5 -110 -11z"/>
<path d="M2135 1317 c-3 -7 -4 -76 -3 -152 l3 -140 120 0 120 0 0 25 c0 24 -2
25 -83 28 l-83 3 3 32 c3 32 3 32 66 35 61 3 62 3 62 32 l0 30 -65 0 -65 0 0
30 0 29 83 3 c80 3 82 4 82 28 l0 25 -118 3 c-90 2 -119 0 -122 -11z"/>
<path d="M2442 1320 c-12 -5 -27 -21 -32 -35 -14 -36 -13 -199 2 -230 15 -32
32 -37 143 -33 88 3 90 3 90 28 0 24 -2 25 -82 28 l-83 3 0 89 c0 102 -5 98
105 102 57 3 60 4 60 28 0 25 -1 25 -90 27 -49 1 -100 -2 -113 -7z"/>
<path d="M2690 1197 c0 -178 -1 -177 131 -177 139 0 139 0 139 176 l0 135 -37
-3 -38 -3 -3 -120 c-3 -127 -6 -135 -55 -135 -63 0 -67 9 -67 140 l0 120 -35
0 -35 0 0 -133z"/>
<path d="M3020 1175 l0 -155 35 0 c35 0 35 0 35 45 0 45 0 45 34 45 30 0 37
-5 58 -42 20 -37 28 -43 61 -46 43 -4 45 3 16 53 l-22 36 21 15 c27 19 39 92
23 144 -15 49 -45 60 -167 60 l-94 0 0 -155z m179 81 c7 -8 11 -30 9 -48 -3
-33 -3 -33 -58 -33 l-55 0 -3 33 c-2 19 -1 40 2 48 7 19 90 19 105 0z"/>
<path d="M3327 1324 c-15 -15 -7 -52 13 -57 18 -5 20 -14 20 -96 0 -85 -1 -91
-21 -91 -16 0 -20 -5 -17 -27 3 -28 4 -28 78 -28 74 0 75 0 78 28 3 22 -1 27
-17 27 -20 0 -21 6 -21 94 0 86 2 94 21 99 15 4 20 12 17 29 -3 21 -8 23 -73
26 -39 1 -74 0 -78 -4z"/>
<path d="M3500 1300 c0 -29 2 -30 45 -30 l45 0 0 -126 0 -125 36 3 36 3 2 120
1 120 47 3 c34 2 48 8 50 20 6 27 101 -167 107 -218 6 -44 7 -45 41 -45 35 0
35 1 40 50 4 34 23 81 58 146 29 53 52 99 52 103 0 3 -17 6 -38 6 -37 0 -39
-2 -72 -70 -19 -38 -37 -70 -42 -70 -4 0 -24 32 -43 70 l-35 70 -165 0 -165 0
0 -30z"/>
<path d="M4220 1174 l0 -155 38 3 37 3 3 52 3 52 62 3 c59 3 62 4 62 28 0 24
-3 25 -62 28 l-63 3 0 39 0 40 80 0 80 0 0 30 0 30 -120 0 -120 0 0 -156z"/>
<path d="M4510 1310 c-18 -18 -20 -33 -20 -133 0 -156 1 -157 136 -157 145 0
147 2 142 160 -4 150 -3 149 -140 150 -85 0 -101 -3 -118 -20z m181 -62 c3
-108 2 -159 -4 -164 -8 -9 -79 -14 -99 -8 -16 5 -18 19 -18 100 l0 94 60 0
c55 0 60 -2 61 -22z"/>
<path d="M4814 1317 c-2 -7 -3 -76 -2 -152 l3 -140 38 -3 37 -3 0 45 c0 46 0
46 34 46 30 0 37 -5 58 -42 20 -37 28 -43 61 -46 43 -4 45 3 15 54 -20 34 -20
38 -5 49 56 41 46 173 -15 194 -46 16 -217 14 -224 -2z m180 -53 c11 -4 16
-19 16 -44 0 -43 -10 -50 -76 -50 l-44 0 0 50 0 50 44 0 c24 0 51 -3 60 -6z"/>
<path d="M5180 1323 c-45 -17 -50 -31 -50 -153 0 -152 0 -152 136 -148 l99 3
3 28 3 27 -85 0 -86 0 0 89 c0 103 -2 101 101 101 l70 0 -3 28 c-3 27 -3 27
-88 29 -47 1 -92 -1 -100 -4z"/>
<path d="M5410 1175 l0 -156 118 3 117 3 3 28 3 27 -86 0 -86 0 3 33 3 32 63
3 c62 3 63 3 60 30 -3 26 -6 27 -66 30 -62 3 -63 3 -60 30 3 27 4 27 86 30
l83 3 -3 27 -3 27 -117 3 -118 3 0 -156z"/>
</g>
</svg>
