<?xml version="1.0" standalone="no"?>
<!DOCTYPE svg PUBLIC "-//W3C//DTD SVG 20010904//EN"
 "http://www.w3.org/TR/2001/REC-SVG-20010904/DTD/svg10.dtd">
<svg version="1.0" xmlns="http://www.w3.org/2000/svg"
 width="745.000000pt" height="785.000000pt" viewBox="0 0 745.000000 785.000000"
 preserveAspectRatio="xMidYMid meet">

<g transform="translate(0.000000,785.000000) scale(0.100000,-0.100000)"
fill="#000000" stroke="none">
<path d="M5565 6706 c-99 -23 -369 -88 -600 -144 -554 -133 -976 -233 -1155
-273 -80 -17 -150 -35 -155 -40 -7 -5 -10 -73 -9 -181 1 -156 3 -173 18 -176
19 -4 20 -4 346 103 124 40 387 126 585 190 198 64 465 151 592 193 128 41
236 72 240 68 4 -4 -3 -62 -14 -129 -12 -67 -65 -366 -117 -665 -53 -299 -96
-546 -96 -548 0 -3 -75 -84 -166 -180 -92 -96 -164 -177 -162 -180 3 -2 45 -9
94 -14 150 -16 154 -18 154 -46 0 -23 -81 -500 -130 -763 -12 -62 -27 -112
-37 -124 -10 -10 -79 -64 -153 -118 -74 -54 -265 -196 -425 -314 -488 -362
-675 -500 -696 -510 -18 -9 -19 -21 -19 -167 0 -87 3 -158 6 -158 5 0 353 272
474 370 25 21 182 145 349 276 520 409 607 478 654 519 l46 40 30 160 c17 88
67 340 111 560 45 220 105 522 134 670 30 149 99 495 154 770 55 275 115 572
132 660 17 88 33 168 36 178 8 25 -14 22 -221 -27z"/>
<path d="M4715 5756 c-71 -24 -270 -89 -441 -144 -171 -55 -327 -107 -347
-116 l-37 -15 0 -226 c0 -180 -3 -232 -15 -255 -8 -15 -18 -30 -22 -32 -5 -1
-52 -49 -106 -105 l-97 -102 0 -676 c0 -575 3 -677 15 -681 8 -4 132 82 307
213 161 120 358 266 437 323 79 57 147 113 152 125 18 43 46 245 35 253 -6 4
-155 23 -330 42 -207 23 -321 40 -323 47 -3 7 130 153 293 325 320 336 469
494 518 546 28 30 32 45 72 270 23 130 40 240 37 245 -6 11 -7 10 -148 -37z"/>
<path d="M1880 1323 c-37 -14 -50 -36 -50 -87 0 -28 4 -57 8 -64 12 -17 68
-32 125 -32 51 0 70 -18 50 -49 -8 -13 -28 -16 -94 -16 -78 0 -84 -2 -87 -21
-4 -26 27 -34 135 -34 66 0 77 3 100 26 22 22 25 32 21 76 -6 62 -19 71 -113
78 l-70 5 0 30 0 30 78 3 78 3 -3 27 c-3 27 -4 27 -83 29 -44 1 -87 -1 -95 -4z"/>
<path d="M2140 1180 l0 -150 100 -1 c55 -1 106 -2 113 -3 6 -1 13 11 15 27 l3
27 -80 0 -81 0 0 35 0 35 65 0 c63 0 65 1 65 25 0 23 -3 25 -49 25 -67 0 -81
7 -81 41 l0 29 80 0 80 0 0 30 0 30 -115 0 -115 0 0 -150z"/>
<path d="M2455 1320 c-44 -17 -50 -37 -47 -154 3 -136 11 -146 107 -146 98 0
125 8 125 37 0 24 -1 24 -77 21 l-78 -3 0 95 0 95 78 3 77 3 0 29 0 30 -82 -1
c-46 0 -92 -4 -103 -9z"/>
<path d="M2697 1323 c-4 -3 -7 -62 -7 -130 0 -118 1 -125 25 -148 22 -23 32
-25 110 -25 78 0 88 2 111 25 24 24 25 28 22 152 l-3 128 -32 3 -33 3 0 -118
c0 -79 -4 -123 -12 -131 -7 -7 -29 -12 -49 -12 -70 0 -69 -1 -69 136 l0 124
-28 0 c-16 0 -32 -3 -35 -7z"/>
<path d="M3020 1181 l0 -151 24 -6 c36 -9 46 2 46 47 0 38 1 39 35 39 30 0 37
-5 57 -40 23 -40 54 -58 83 -46 14 5 13 11 -5 47 l-21 41 20 22 c17 18 21 35
21 88 0 94 -11 102 -151 106 l-109 4 0 -151z m185 39 l0 -45 -57 -3 -58 -3 0
51 0 51 58 -3 57 -3 0 -45z"/>
<path d="M3327 1323 c-14 -13 -6 -45 12 -50 16 -4 20 -16 23 -76 4 -93 0 -114
-23 -120 -11 -3 -19 -14 -19 -25 0 -17 9 -22 43 -27 73 -11 102 -4 105 26 2
19 -2 28 -17 32 -17 4 -19 14 -19 78 0 87 5 109 23 109 16 0 29 35 20 50 -7
11 -138 14 -148 3z"/>
<path d="M3500 1300 c0 -29 2 -30 45 -30 l45 0 0 -120 0 -120 26 -6 c14 -4 29
-3 34 2 5 5 11 61 12 124 l3 115 40 3 c22 2 45 10 51 18 10 12 21 -2 63 -80
29 -53 51 -108 51 -125 0 -44 10 -61 34 -61 31 0 46 19 46 60 0 23 19 70 55
138 56 107 56 118 3 110 -18 -2 -31 -20 -58 -75 -19 -40 -38 -73 -41 -73 -4 0
-23 34 -42 75 l-36 75 -166 0 -165 0 0 -30z"/>
<path d="M4225 1317 c-3 -7 -4 -76 -3 -152 l3 -140 30 0 c29 0 30 2 33 53 l3
52 45 1 c24 1 49 3 54 4 6 1 15 3 20 4 6 0 10 12 10 26 0 24 -3 25 -59 25 -57
0 -59 1 -63 28 -7 49 -2 52 83 52 l80 0 -3 28 -3 27 -113 3 c-86 2 -114 0
-117 -11z"/>
<path d="M4512 1307 c-20 -21 -22 -34 -22 -131 0 -100 2 -108 25 -131 22 -23
32 -25 115 -25 83 0 93 2 115 25 23 23 25 31 25 130 0 99 -2 107 -25 130 -22
23 -32 25 -118 25 -85 0 -96 -2 -115 -23z m186 -125 c2 -53 -1 -89 -9 -98 -14
-17 -100 -19 -117 -2 -13 13 -17 143 -6 173 5 13 19 15 68 13 l61 -3 3 -83z"/>
<path d="M4820 1182 c0 -95 4 -153 11 -157 5 -4 21 -4 35 -1 20 5 24 12 24 46
0 40 0 40 38 40 34 0 39 -4 58 -42 17 -36 25 -43 50 -44 44 -1 46 4 22 45
l-22 38 22 28 c17 22 22 41 22 90 0 90 -12 99 -151 103 l-109 4 0 -150z m185
38 l0 -45 -57 -3 -58 -3 0 51 0 51 58 -3 57 -3 0 -45z"/>
<path d="M5183 1323 c-43 -8 -53 -39 -53 -155 0 -136 8 -148 103 -148 34 0 79
3 100 7 31 5 38 9 35 27 -3 19 -10 21 -73 22 -38 0 -76 1 -83 2 -10 2 -12 25
-10 95 l3 92 80 5 c77 5 80 6 80 30 0 24 -2 25 -80 26 -44 1 -90 0 -102 -3z"/>
<path d="M5412 1178 l3 -153 106 -3 c85 -2 108 0 119 13 7 8 10 22 6 30 -4 12
-23 15 -86 15 l-81 0 3 33 c3 32 4 32 61 35 41 2 60 8 64 18 9 24 -7 32 -67
36 -54 3 -55 4 -58 36 l-3 32 79 0 c67 0 80 3 84 18 10 38 0 42 -118 42 l-115
0 3 -152z"/>
</g>
</svg>
